<svg width="274" height="51" viewBox="0 0 274 51" fill="none" xmlns="http://www.w3.org/2000/svg">
<path fill-rule="evenodd" clip-rule="evenodd" d="M15.8594 6.99775C15.8594 5.53796 14.676 4.35456 13.2162 4.35456C11.7564 4.35456 10.573 5.53796 10.573 6.99776C10.573 8.45755 11.7564 9.64095 13.2162 9.64095C14.676 9.64095 15.8594 8.45755 15.8594 6.99775ZM19.3837 6.99775C19.3837 3.59156 16.6224 0.830292 13.2162 0.830292C9.81004 0.830292 7.04878 3.59156 7.04878 6.99776C7.04878 10.404 9.81004 13.1652 13.2162 13.1652C14.2689 13.1652 15.2599 12.9015 16.1269 12.4366L19.0433 20.2138L38.7669 20.2138C39.7401 20.2138 40.529 19.4249 40.529 18.4517C40.529 17.4785 39.7401 16.6895 38.7669 16.6895L21.4856 16.6895L19.2712 10.7844C19.1408 10.4366 18.9122 10.1543 18.6286 9.95713C19.11 9.07863 19.3837 8.07016 19.3837 6.99775ZM18.6288 41.0432C18.9122 40.8461 19.1408 40.5638 19.2712 40.216L21.4856 34.3109H38.7669C39.7401 34.3109 40.529 33.522 40.529 32.5488C40.529 31.5756 39.7401 30.7866 38.7669 30.7866L19.0433 30.7866L16.127 38.5635C15.26 38.0985 14.2689 37.8348 13.2162 37.8348C9.81004 37.8348 7.04878 40.5961 7.04878 44.0023C7.04878 47.4085 9.81004 50.1697 13.2162 50.1697C16.6224 50.1697 19.3837 47.4085 19.3837 44.0023C19.3837 42.93 19.1101 41.9216 18.6288 41.0432ZM13.2162 46.6455C14.676 46.6455 15.8594 45.4621 15.8594 44.0023C15.8594 42.5425 14.676 41.3591 13.2162 41.3591C11.7564 41.3591 10.573 42.5425 10.573 44.0023C10.573 45.4621 11.7564 46.6455 13.2162 46.6455ZM6.16746 21.976C7.62726 21.976 8.81066 23.1594 8.81066 24.6192C8.81066 26.079 7.62726 27.2624 6.16746 27.2624C4.70766 27.2624 3.52426 26.079 3.52426 24.6192C3.52426 23.1594 4.70766 21.976 6.16746 21.976ZM12.2725 23.7381C11.8449 20.7493 9.27451 18.4517 6.16746 18.4517C2.76127 18.4517 0 21.213 0 24.6192C0 28.0254 2.76127 30.7866 6.16746 30.7866C8.62776 30.7866 10.7516 29.346 11.7414 27.2624L38.7666 27.2624C39.7398 27.2624 40.5287 26.4734 40.5287 25.5002C40.5287 24.527 39.7398 23.7381 38.7666 23.7381H12.2725Z" fill="#2F59ED"/>
<path d="M66.548 40.9C64.5213 40.9 62.668 40.5533 60.988 39.86C59.308 39.1667 57.8546 38.18 56.628 36.9C55.4013 35.5933 54.4413 34.06 53.748 32.3C53.0813 30.5133 52.748 28.5667 52.748 26.46C52.748 24.4333 53.108 22.5533 53.828 20.82C54.548 19.0867 55.548 17.5667 56.828 16.26C58.108 14.9533 59.6013 13.94 61.308 13.22C63.0146 12.5 64.868 12.14 66.868 12.14C68.228 12.14 69.548 12.34 70.828 12.74C72.108 13.14 73.2813 13.7 74.348 14.42C75.4146 15.1133 76.308 15.9267 77.028 16.86L73.708 20.5C73.0146 19.78 72.2946 19.18 71.548 18.7C70.828 18.1933 70.068 17.82 69.268 17.58C68.4946 17.3133 67.6946 17.18 66.868 17.18C65.6413 17.18 64.4813 17.4067 63.388 17.86C62.3213 18.3133 61.388 18.9533 60.588 19.78C59.8146 20.6067 59.2013 21.5933 58.748 22.74C58.2946 23.86 58.068 25.1133 58.068 26.5C58.068 27.9133 58.2813 29.1933 58.708 30.34C59.1613 31.4867 59.788 32.4733 60.588 33.3C61.4146 34.1267 62.388 34.7667 63.508 35.22C64.6546 35.6467 65.908 35.86 67.268 35.86C68.148 35.86 69.0013 35.74 69.828 35.5C70.6546 35.26 71.4146 34.9267 72.108 34.5C72.828 34.0467 73.4813 33.5267 74.068 32.94L76.628 37.06C75.988 37.78 75.1346 38.4333 74.068 39.02C73.0013 39.6067 71.8013 40.0733 70.468 40.42C69.1613 40.74 67.8546 40.9 66.548 40.9ZM90.7717 40.9C88.665 40.9 86.785 40.4333 85.1317 39.5C83.4784 38.54 82.1717 37.2333 81.2117 35.58C80.2517 33.9267 79.7717 32.0467 79.7717 29.94C79.7717 27.8333 80.2517 25.9533 81.2117 24.3C82.1717 22.6467 83.4784 21.3533 85.1317 20.42C86.785 19.46 88.665 18.98 90.7717 18.98C92.8517 18.98 94.7184 19.46 96.3717 20.42C98.025 21.3533 99.3184 22.6467 100.252 24.3C101.212 25.9533 101.692 27.8333 101.692 29.94C101.692 32.0467 101.212 33.9267 100.252 35.58C99.3184 37.2333 98.025 38.54 96.3717 39.5C94.7184 40.4333 92.8517 40.9 90.7717 40.9ZM90.7717 36.54C91.9184 36.54 92.9317 36.2467 93.8117 35.66C94.7184 35.0733 95.425 34.2867 95.9317 33.3C96.465 32.3133 96.7184 31.1933 96.6917 29.94C96.7184 28.66 96.465 27.5267 95.9317 26.54C95.425 25.5533 94.7184 24.78 93.8117 24.22C92.9317 23.6333 91.9184 23.34 90.7717 23.34C89.625 23.34 88.585 23.6333 87.6517 24.22C86.745 24.78 86.0384 25.5667 85.5317 26.58C85.025 27.5667 84.7717 28.6867 84.7717 29.94C84.7717 31.1933 85.025 32.3133 85.5317 33.3C86.0384 34.2867 86.745 35.0733 87.6517 35.66C88.585 36.2467 89.625 36.54 90.7717 36.54ZM114.573 40.9C112.706 40.9 111.026 40.4333 109.533 39.5C108.066 38.54 106.893 37.2467 106.013 35.62C105.159 33.9667 104.733 32.0733 104.733 29.94C104.733 27.8333 105.159 25.9533 106.013 24.3C106.866 22.6467 108.026 21.3533 109.493 20.42C110.986 19.46 112.666 18.98 114.533 18.98C115.546 18.98 116.519 19.14 117.453 19.46C118.413 19.78 119.266 20.22 120.013 20.78C120.759 21.3133 121.346 21.9133 121.773 22.58C122.226 23.2467 122.479 23.94 122.533 24.66L121.213 24.82V10.9H126.133V40.5H121.373L121.253 35.54L122.213 35.62C122.186 36.2867 121.946 36.9267 121.493 37.54C121.066 38.1533 120.506 38.7133 119.813 39.22C119.119 39.7267 118.306 40.14 117.373 40.46C116.466 40.7533 115.533 40.9 114.573 40.9ZM115.533 36.74C116.679 36.74 117.693 36.4467 118.573 35.86C119.453 35.2733 120.133 34.4733 120.613 33.46C121.119 32.4467 121.373 31.2733 121.373 29.94C121.373 28.6333 121.119 27.4733 120.613 26.46C120.133 25.42 119.453 24.62 118.573 24.06C117.693 23.4733 116.679 23.18 115.533 23.18C114.386 23.18 113.373 23.4733 112.493 24.06C111.613 24.62 110.919 25.42 110.413 26.46C109.933 27.4733 109.693 28.6333 109.693 29.94C109.693 31.2733 109.933 32.4467 110.413 33.46C110.919 34.4733 111.613 35.2733 112.493 35.86C113.373 36.4467 114.386 36.74 115.533 36.74ZM141.598 40.9C139.384 40.9 137.424 40.4333 135.718 39.5C134.038 38.5667 132.718 37.3 131.758 35.7C130.824 34.0733 130.358 32.22 130.358 30.14C130.358 28.4867 130.624 26.98 131.158 25.62C131.691 24.26 132.424 23.0867 133.358 22.1C134.318 21.0867 135.451 20.3133 136.758 19.78C138.091 19.22 139.544 18.94 141.118 18.94C142.504 18.94 143.798 19.2067 144.998 19.74C146.198 20.2733 147.238 21.0067 148.118 21.94C148.998 22.8467 149.664 23.94 150.118 25.22C150.598 26.4733 150.824 27.8467 150.798 29.34L150.758 31.06H133.678L132.758 27.7H146.638L145.998 28.38V27.5C145.918 26.6733 145.651 25.9533 145.198 25.34C144.744 24.7 144.158 24.2067 143.438 23.86C142.744 23.4867 141.971 23.3 141.118 23.3C139.811 23.3 138.704 23.5533 137.798 24.06C136.918 24.5667 136.251 25.3 135.798 26.26C135.344 27.1933 135.118 28.3667 135.118 29.78C135.118 31.14 135.398 32.3267 135.958 33.34C136.544 34.3533 137.358 35.14 138.398 35.7C139.464 36.2333 140.704 36.5 142.118 36.5C143.104 36.5 144.011 36.34 144.838 36.02C145.664 35.7 146.558 35.1267 147.518 34.3L149.958 37.7C149.238 38.3667 148.411 38.94 147.478 39.42C146.571 39.8733 145.611 40.2333 144.598 40.5C143.584 40.7667 142.584 40.9 141.598 40.9ZM187.92 40.9C186.187 40.9 184.613 40.42 183.2 39.46C181.787 38.5 180.653 37.1933 179.8 35.54C178.947 33.8867 178.52 32.0067 178.52 29.9C178.52 27.7933 178.947 25.9133 179.8 24.26C180.653 22.6067 181.813 21.3133 183.28 20.38C184.747 19.4467 186.4 18.98 188.24 18.98C189.307 18.98 190.28 19.14 191.16 19.46C192.04 19.7533 192.813 20.18 193.48 20.74C194.147 21.3 194.693 21.94 195.12 22.66C195.573 23.38 195.88 24.1533 196.04 24.98L194.96 24.7V19.42H199.92V40.5H194.92V35.46L196.08 35.26C195.893 35.98 195.547 36.6867 195.04 37.38C194.56 38.0467 193.947 38.6467 193.2 39.18C192.48 39.6867 191.667 40.1 190.76 40.42C189.88 40.74 188.933 40.9 187.92 40.9ZM189.28 36.54C190.427 36.54 191.44 36.26 192.32 35.7C193.2 35.14 193.88 34.3667 194.36 33.38C194.867 32.3667 195.12 31.2067 195.12 29.9C195.12 28.62 194.867 27.4867 194.36 26.5C193.88 25.5133 193.2 24.74 192.32 24.18C191.44 23.62 190.427 23.34 189.28 23.34C188.133 23.34 187.12 23.62 186.24 24.18C185.387 24.74 184.72 25.5133 184.24 26.5C183.76 27.4867 183.52 28.62 183.52 29.9C183.52 31.2067 183.76 32.3667 184.24 33.38C184.72 34.3667 185.387 35.14 186.24 35.7C187.12 36.26 188.133 36.54 189.28 36.54ZM212.664 40.9C210.797 40.9 209.117 40.5933 207.624 39.98C206.157 39.34 204.957 38.4333 204.024 37.26L207.224 34.5C208.024 35.4067 208.917 36.06 209.904 36.46C210.891 36.86 211.931 37.06 213.024 37.06C213.477 37.06 213.877 37.0067 214.224 36.9C214.597 36.7933 214.917 36.6333 215.184 36.42C215.451 36.2067 215.651 35.9667 215.784 35.7C215.944 35.4067 216.024 35.0867 216.024 34.74C216.024 34.1 215.784 33.5933 215.304 33.22C215.037 33.0333 214.611 32.8333 214.024 32.62C213.464 32.4067 212.731 32.1933 211.824 31.98C210.384 31.6067 209.184 31.18 208.224 30.7C207.264 30.1933 206.517 29.6333 205.984 29.02C205.531 28.5133 205.184 27.94 204.944 27.3C204.731 26.66 204.624 25.9667 204.624 25.22C204.624 24.2867 204.824 23.4467 205.224 22.7C205.651 21.9267 206.224 21.26 206.944 20.7C207.664 20.14 208.504 19.7133 209.464 19.42C210.424 19.1267 211.424 18.98 212.464 18.98C213.531 18.98 214.557 19.1133 215.544 19.38C216.557 19.6467 217.491 20.0333 218.344 20.54C219.224 21.02 219.971 21.6067 220.584 22.3L217.864 25.3C217.357 24.82 216.797 24.3933 216.184 24.02C215.597 23.6467 214.997 23.3533 214.384 23.14C213.771 22.9 213.197 22.78 212.664 22.78C212.157 22.78 211.704 22.8333 211.304 22.94C210.904 23.02 210.571 23.1533 210.304 23.34C210.037 23.5267 209.824 23.7667 209.664 24.06C209.531 24.3267 209.464 24.6467 209.464 25.02C209.491 25.34 209.571 25.6467 209.704 25.94C209.864 26.2067 210.077 26.4333 210.344 26.62C210.637 26.8067 211.077 27.02 211.664 27.26C212.251 27.5 213.011 27.7267 213.944 27.94C215.251 28.2867 216.344 28.6733 217.224 29.1C218.104 29.5267 218.797 30.02 219.304 30.58C219.811 31.06 220.171 31.62 220.384 32.26C220.597 32.9 220.704 33.6067 220.704 34.38C220.704 35.6333 220.344 36.7533 219.624 37.74C218.931 38.7267 217.971 39.5 216.744 40.06C215.544 40.62 214.184 40.9 212.664 40.9ZM225.598 40.5V19.42H230.518V40.5H225.598ZM227.998 14.94C227.011 14.94 226.238 14.7 225.678 14.22C225.145 13.7133 224.878 13.0067 224.878 12.1C224.878 11.2467 225.158 10.5533 225.718 10.02C226.278 9.48666 227.038 9.22 227.998 9.22C229.011 9.22 229.785 9.47333 230.318 9.98C230.878 10.46 231.158 11.1667 231.158 12.1C231.158 12.9267 230.878 13.6067 230.318 14.14C229.758 14.6733 228.985 14.94 227.998 14.94ZM246.637 40.9C244.423 40.9 242.463 40.4333 240.757 39.5C239.077 38.5667 237.757 37.3 236.797 35.7C235.863 34.0733 235.397 32.22 235.397 30.14C235.397 28.4867 235.663 26.98 236.197 25.62C236.73 24.26 237.463 23.0867 238.397 22.1C239.357 21.0867 240.49 20.3133 241.797 19.78C243.13 19.22 244.583 18.94 246.157 18.94C247.543 18.94 248.837 19.2067 250.037 19.74C251.237 20.2733 252.277 21.0067 253.157 21.94C254.037 22.8467 254.703 23.94 255.157 25.22C255.637 26.4733 255.863 27.8467 255.837 29.34L255.797 31.06H238.717L237.797 27.7H251.677L251.037 28.38V27.5C250.957 26.6733 250.69 25.9533 250.237 25.34C249.783 24.7 249.197 24.2067 248.477 23.86C247.783 23.4867 247.01 23.3 246.157 23.3C244.85 23.3 243.743 23.5533 242.837 24.06C241.957 24.5667 241.29 25.3 240.837 26.26C240.383 27.1933 240.157 28.3667 240.157 29.78C240.157 31.14 240.437 32.3267 240.997 33.34C241.583 34.3533 242.397 35.14 243.437 35.7C244.503 36.2333 245.743 36.5 247.157 36.5C248.143 36.5 249.05 36.34 249.877 36.02C250.703 35.7 251.597 35.1267 252.557 34.3L254.997 37.7C254.277 38.3667 253.45 38.94 252.517 39.42C251.61 39.8733 250.65 40.2333 249.637 40.5C248.623 40.7667 247.623 40.9 246.637 40.9ZM260.194 40.5V19.42H265.034L265.114 26.14L264.434 24.62C264.728 23.5533 265.234 22.5933 265.954 21.74C266.674 20.8867 267.501 20.22 268.434 19.74C269.394 19.2333 270.394 18.98 271.434 18.98C271.888 18.98 272.314 19.02 272.714 19.1C273.141 19.18 273.488 19.2733 273.754 19.38L272.434 24.78C272.141 24.62 271.781 24.4867 271.354 24.38C270.928 24.2733 270.501 24.22 270.074 24.22C269.408 24.22 268.768 24.3533 268.154 24.62C267.568 24.86 267.048 25.2067 266.594 25.66C266.141 26.1133 265.781 26.6467 265.514 27.26C265.274 27.8467 265.154 28.5133 265.154 29.26V40.5H260.194Z" fill="white"/>
<path d="M156.035 40.5V12.5H174.355V17.22H161.155V35.78H174.515V40.5H156.035ZM158.435 28.5V23.86H172.315V28.5H158.435Z" fill="#3525B0"/>
</svg>
