<svg width="71" height="71" viewBox="0 0 71 71" fill="none" xmlns="http://www.w3.org/2000/svg">
<rect x="0.669922" y="0.5" width="70" height="70" rx="32" fill="#3131BD"/>
<path d="M23.2949 48.2286H29.4824V38.8C29.4824 38.2657 29.6804 37.8182 30.0764 37.4574C30.4724 37.0966 30.9619 36.9155 31.5449 36.9143H39.7949C40.3793 36.9143 40.8695 37.0953 41.2655 37.4574C41.6615 37.8194 41.8588 38.267 41.8574 38.8V48.2286H48.0449V31.2571L35.6699 22.7714L23.2949 31.2571V48.2286ZM19.1699 48.2286V31.2571C19.1699 30.66 19.3164 30.0943 19.6092 29.56C19.9021 29.0257 20.3057 28.5857 20.8199 28.24L33.1949 19.7543C33.9168 19.2514 34.7418 19 35.6699 19C36.598 19 37.423 19.2514 38.1449 19.7543L50.5199 28.24C51.0355 28.5857 51.4398 29.0257 51.7327 29.56C52.0255 30.0943 52.1713 30.66 52.1699 31.2571V48.2286C52.1699 49.2657 51.7657 50.1539 50.9572 50.8931C50.1487 51.6323 49.1779 52.0013 48.0449 52H39.7949C39.2105 52 38.721 51.819 38.3264 51.4569C37.9318 51.0949 37.7338 50.6473 37.7324 50.1143V40.6857H33.6074V50.1143C33.6074 50.6486 33.4094 51.0967 33.0134 51.4588C32.6174 51.8209 32.1279 52.0013 31.5449 52H23.2949C22.1605 52 21.1898 51.631 20.3827 50.8931C19.5755 50.1551 19.1713 49.267 19.1699 48.2286Z" fill="white"/>
</svg>
