<svg width="41" height="51" viewBox="0 0 41 51" fill="none" xmlns="http://www.w3.org/2000/svg">
<path fill-rule="evenodd" clip-rule="evenodd" d="M15.8594 6.99772C15.8594 5.53793 14.676 4.35453 13.2162 4.35453C11.7564 4.35453 10.573 5.53793 10.573 6.99773C10.573 8.45752 11.7564 9.64092 13.2162 9.64092C14.676 9.64092 15.8594 8.45752 15.8594 6.99772ZM19.3837 6.99772C19.3837 3.59153 16.6224 0.830261 13.2162 0.830261C9.81004 0.830261 7.04878 3.59153 7.04878 6.99773C7.04878 10.4039 9.81004 13.1652 13.2162 13.1652C14.2689 13.1652 15.2599 12.9015 16.1269 12.4365L19.0433 20.2138L38.7669 20.2138C39.7401 20.2138 40.529 19.4248 40.529 18.4516C40.529 17.4784 39.7401 16.6895 38.7669 16.6895L21.4856 16.6895L19.2712 10.7844C19.1408 10.4366 18.9122 10.1542 18.6286 9.9571C19.11 9.0786 19.3837 8.07013 19.3837 6.99772ZM18.6288 41.0432C18.9122 40.846 19.1408 40.5637 19.2712 40.216L21.4856 34.3109H38.7669C39.7401 34.3109 40.529 33.5219 40.529 32.5487C40.529 31.5755 39.7401 30.7866 38.7669 30.7866L19.0433 30.7866L16.127 38.5635C15.26 38.0985 14.2689 37.8348 13.2162 37.8348C9.81004 37.8348 7.04878 40.596 7.04878 44.0022C7.04878 47.4084 9.81004 50.1697 13.2162 50.1697C16.6224 50.1697 19.3837 47.4084 19.3837 44.0022C19.3837 42.93 19.1101 41.9216 18.6288 41.0432ZM13.2162 46.6454C14.676 46.6454 15.8594 45.462 15.8594 44.0022C15.8594 42.5424 14.676 41.359 13.2162 41.359C11.7564 41.359 10.573 42.5424 10.573 44.0022C10.573 45.462 11.7564 46.6454 13.2162 46.6454ZM6.16746 21.976C7.62726 21.976 8.81066 23.1594 8.81066 24.6192C8.81066 26.0789 7.62726 27.2623 6.16746 27.2623C4.70766 27.2623 3.52426 26.0789 3.52426 24.6192C3.52426 23.1594 4.70766 21.976 6.16746 21.976ZM12.2725 23.7381C11.8449 20.7492 9.27451 18.4517 6.16746 18.4517C2.76127 18.4517 -1.49012e-07 21.213 0 24.6192C1.49012e-07 28.0253 2.76127 30.7866 6.16746 30.7866C8.62776 30.7866 10.7516 29.346 11.7414 27.2623L38.7666 27.2623C39.7398 27.2623 40.5287 26.4734 40.5287 25.5002C40.5287 24.527 39.7398 23.7381 38.7666 23.7381H12.2725Z" fill="#2F59ED"/>
</svg>
